<svg xmlns="http://www.w3.org/2000/svg" xmlns:xlink="http://www.w3.org/1999/xlink" width="96" zoomAndPan="magnify" viewBox="0 0 72 72" height="96" preserveAspectRatio="xMidYMid meet" version="1.0"><defs><clipPath id="id1"><path d="M 19 12.574219 L 42 12.574219 L 42 51 L 19 51 Z M 19 12.574219 " clip-rule="nonzero"/></clipPath><clipPath id="id2"><path d="M 36 33 L 71.65625 33 L 71.65625 56 L 36 56 Z M 36 33 " clip-rule="nonzero"/></clipPath><clipPath id="id3"><path d="M 35 32 L 71.65625 32 L 71.65625 57 L 35 57 Z M 35 32 " clip-rule="nonzero"/></clipPath><clipPath id="id4"><path d="M 0.40625 32 L 37 32 L 37 57 L 0.40625 57 Z M 0.40625 32 " clip-rule="nonzero"/></clipPath></defs><rect x="-7.2" width="86.4" fill="rgb(100%, 100%, 100%)" y="-7.2" height="86.4" fill-opacity="1"/><rect x="-7.2" width="86.4" fill="rgb(13.729858%, 16.079712%, 27.449036%)" y="-7.2" height="86.4" fill-opacity="1"/><rect x="-7.2" width="86.4" fill="rgb(100%, 100%, 100%)" y="-7.2" height="86.4" fill-opacity="1"/><rect x="-7.2" width="86.4" fill="rgb(13.729858%, 16.079712%, 27.449036%)" y="-7.2" height="86.4" fill-opacity="1"/><path fill="rgb(93.328857%, 73.329163%, 76.469421%)" d="M 20.171875 34.273438 C 22.773438 44.5 35.015625 50.261719 35.015625 50.261719 C 35.015625 50.261719 43.042969 39.4375 40.445312 29.210938 C 37.847656 18.984375 25.605469 13.222656 25.605469 13.222656 C 25.605469 13.222656 17.574219 24.046875 20.171875 34.273438 " fill-opacity="1" fill-rule="nonzero"/><g clip-path="url(#id1)"><path stroke-linecap="round" transform="matrix(0.0361675, 0, 0, -0.0358607, -40.498534, 110.897657)" fill="none" stroke-linejoin="round" d="M 1677.483596 2136.718637 C 1749.414517 1851.543963 2087.900262 1690.874504 2087.900262 1690.874504 C 2087.900262 1690.874504 2309.849275 1992.71523 2238.026358 2277.889904 C 2166.203442 2563.064578 1827.717697 2723.734037 1827.717697 2723.734037 C 1827.717697 2723.734037 1605.660679 2421.893311 1677.483596 2136.718637 Z M 1677.483596 2136.718637 " stroke="rgb(100%, 100%, 100%)" stroke-width="31.837" stroke-opacity="1" stroke-miterlimit="10"/></g><path fill="rgb(93.328857%, 73.329163%, 76.469421%)" d="M 32.921875 30.132812 C 29.953125 40.257812 37.578125 51.367188 37.578125 51.367188 C 37.578125 51.367188 50.023438 46.050781 52.996094 35.921875 C 55.96875 25.796875 48.339844 14.691406 48.339844 14.691406 C 48.339844 14.691406 35.894531 20.003906 32.921875 30.132812 " fill-opacity="1" fill-rule="nonzero"/><path stroke-linecap="round" transform="matrix(0.0361675, 0, 0, -0.0358607, -40.498534, 110.897657)" fill="none" stroke-linejoin="round" d="M 2030.009911 2252.182791 C 1947.926578 1969.840257 2158.751139 1660.047754 2158.751139 1660.047754 C 2158.751139 1660.047754 2502.853112 1808.29937 2585.04445 2090.750833 C 2667.235788 2373.093367 2456.303222 2682.776941 2456.303222 2682.776941 C 2456.303222 2682.776941 2112.201249 2534.634254 2030.009911 2252.182791 Z M 2030.009911 2252.182791 " stroke="rgb(100%, 100%, 100%)" stroke-width="31.837" stroke-opacity="1" stroke-miterlimit="10"/><path fill="rgb(93.328857%, 73.329163%, 76.469421%)" d="M 55.4375 42.09375 C 49.804688 51.039062 36.367188 52.800781 36.367188 52.800781 C 36.367188 52.800781 32.074219 40.054688 37.710938 31.109375 C 43.347656 22.167969 56.785156 20.40625 56.785156 20.40625 C 56.785156 20.40625 61.078125 33.148438 55.4375 42.09375 " fill-opacity="1" fill-rule="nonzero"/><path stroke-linecap="round" transform="matrix(0.0361675, 0, 0, -0.0358607, -40.498534, 110.897657)" fill="none" stroke-linejoin="round" d="M 2652.547191 1918.643887 C 2496.804867 1669.197743 2125.26978 1620.071014 2125.26978 1620.071014 C 2125.26978 1620.071014 2006.57296 1975.504536 2162.423288 2224.950679 C 2318.273617 2474.287894 2689.808704 2523.414624 2689.808704 2523.414624 C 2689.808704 2523.414624 2808.505524 2168.09003 2652.547191 1918.643887 Z M 2652.547191 1918.643887 " stroke="rgb(100%, 100%, 100%)" stroke-width="31.837" stroke-opacity="1" stroke-miterlimit="10"/><path fill="rgb(93.328857%, 73.329163%, 76.469421%)" d="M 16.640625 42.117188 C 22.300781 51.046875 35.738281 52.769531 35.738281 52.769531 C 35.738281 52.769531 40 40.019531 34.339844 31.085938 C 28.679688 22.15625 15.238281 20.433594 15.238281 20.433594 C 15.238281 20.433594 10.980469 33.1875 16.640625 42.117188 " fill-opacity="1" fill-rule="nonzero"/><path stroke-linecap="round" transform="matrix(0.0361675, 0, 0, -0.0358607, -40.498534, 110.897657)" fill="none" stroke-linejoin="round" d="M 1579.847631 1917.990316 C 1736.345986 1668.979886 2107.881073 1620.942441 2107.881073 1620.942441 C 2107.881073 1620.942441 2225.713858 1976.484892 2069.215503 2225.60425 C 1912.717148 2474.614679 1541.074057 2522.652124 1541.074057 2522.652124 C 1541.074057 2522.652124 1423.349276 2167.000745 1579.847631 1917.990316 Z M 1579.847631 1917.990316 " stroke="rgb(100%, 100%, 100%)" stroke-width="31.837" stroke-opacity="1" stroke-miterlimit="10"/><g clip-path="url(#id2)"><path fill="rgb(93.328857%, 73.329163%, 76.469421%)" d="M 58.214844 53.828125 C 48.628906 58.402344 36.324219 52.769531 36.324219 52.769531 C 36.324219 52.769531 39.5625 39.726562 49.148438 35.152344 C 58.734375 30.578125 71.039062 36.207031 71.039062 36.207031 C 71.039062 36.207031 67.800781 49.253906 58.214844 53.828125 " fill-opacity="1" fill-rule="nonzero"/></g><g clip-path="url(#id3)"><path stroke-linecap="round" transform="matrix(0.0361675, 0, 0, -0.0358607, -40.498534, 110.897657)" fill="none" stroke-linejoin="round" d="M 2729.33831 1591.422832 C 2464.295547 1463.867621 2124.081731 1620.942441 2124.081731 1620.942441 C 2124.081731 1620.942441 2213.617367 1984.654525 2478.66013 2112.209737 C 2743.702893 2239.764948 3083.916708 2082.799056 3083.916708 2082.799056 C 3083.916708 2082.799056 2994.381072 1718.978043 2729.33831 1591.422832 Z M 2729.33831 1591.422832 " stroke="rgb(100%, 100%, 100%)" stroke-width="31.837" stroke-opacity="1" stroke-miterlimit="10"/></g><path fill="rgb(93.328857%, 73.329163%, 76.469421%)" d="M 13.851562 53.828125 C 23.433594 58.402344 35.738281 52.769531 35.738281 52.769531 C 35.738281 52.769531 32.503906 39.726562 22.914062 35.152344 C 13.328125 30.578125 1.023438 36.207031 1.023438 36.207031 C 1.023438 36.207031 4.261719 49.253906 13.851562 53.828125 " fill-opacity="1" fill-rule="nonzero"/><g clip-path="url(#id4)"><path stroke-linecap="round" transform="matrix(0.0361675, 0, 0, -0.0358607, -40.498534, 110.897657)" fill="none" stroke-linejoin="round" d="M 1502.7325 1591.422832 C 1767.667258 1463.867621 2107.881073 1620.942441 2107.881073 1620.942441 C 2107.881073 1620.942441 2018.453442 1984.654525 1753.302675 2112.209737 C 1488.259912 2239.764948 1148.046096 2082.799056 1148.046096 2082.799056 C 1148.046096 2082.799056 1237.581732 1718.978043 1502.7325 1591.422832 Z M 1502.7325 1591.422832 " stroke="rgb(100%, 100%, 100%)" stroke-width="31.837" stroke-opacity="1" stroke-miterlimit="10"/></g><path fill="rgb(93.328857%, 73.329163%, 76.469421%)" d="M 46.78125 33.675781 C 46.78125 44.222656 36.324219 52.769531 36.324219 52.769531 C 36.324219 52.769531 25.871094 44.222656 25.871094 33.675781 C 25.871094 23.128906 36.324219 14.574219 36.324219 14.574219 C 36.324219 14.574219 46.78125 23.128906 46.78125 33.675781 " fill-opacity="1" fill-rule="nonzero"/><path stroke-linecap="round" transform="matrix(0.0361675, 0, 0, -0.0358607, -40.498534, 110.897657)" fill="none" stroke-linejoin="round" d="M 2413.209472 2153.38469 C 2413.209472 1859.277883 2124.081731 1620.942441 2124.081731 1620.942441 C 2124.081731 1620.942441 1835.061995 1859.277883 1835.061995 2153.38469 C 1835.061995 2447.491496 2124.081731 2686.044795 2124.081731 2686.044795 C 2124.081731 2686.044795 2413.209472 2447.491496 2413.209472 2153.38469 Z M 2413.209472 2153.38469 " stroke="rgb(100%, 100%, 100%)" stroke-width="31.837" stroke-opacity="1" stroke-miterlimit="10"/></svg>