<?xml version="1.0" encoding="UTF-8"?>
<svg xmlns="http://www.w3.org/2000/svg" xmlns:xlink="http://www.w3.org/1999/xlink" width="192px" height="192px" viewBox="0 0 192 192" version="1.1">
<defs>
<clipPath id="clip1">
  <path d="M 50.667969 33.53125 L 111 33.53125 L 111 136 L 50.667969 136 Z M 50.667969 33.53125 "/>
</clipPath>
<clipPath id="clip2">
  <path d="M 1.082031 87 L 97 87 L 97 150 L 1.082031 150 Z M 1.082031 87 "/>
</clipPath>
</defs>
<g id="surface1">
<rect x="0" y="0" width="192" height="192" style="fill:rgb(13.72549%,16.078431%,27.45098%);fill-opacity:1;stroke:none;"/>
<path style=" stroke:none;fill-rule:nonzero;fill:rgb(93.333333%,73.333333%,76.470588%);fill-opacity:1;" d="M 53.792969 91.394531 C 60.730469 118.667969 93.375 134.03125 93.375 134.03125 C 93.375 134.03125 114.78125 105.167969 107.855469 77.894531 C 100.925781 50.625 68.28125 35.261719 68.28125 35.261719 C 68.28125 35.261719 46.863281 64.125 53.792969 91.394531 "/>
<g clip-path="url(#clip1)" clip-rule="nonzero">
<path style="fill:none;stroke-width:31.837;stroke-linecap:round;stroke-linejoin:round;stroke:rgb(100%,100%,100%);stroke-opacity:1;stroke-miterlimit:10;" d="M 1677.497678 2136.732071 C 1749.428625 1851.530191 2087.900988 1690.874362 2087.900988 1690.874362 C 2087.900988 1690.874362 2309.850079 1992.701445 2238.040638 2277.903325 C 2166.190695 2563.064357 1827.718331 2723.720186 1827.718331 2723.720186 C 1827.718331 2723.720186 1605.647735 2421.893103 1677.497678 2136.732071 Z M 1677.497678 2136.732071 " transform="matrix(0.0964467,0,0,-0.0956285,-107.996091,295.727085)"/>
</g>
<path style=" stroke:none;fill-rule:nonzero;fill:rgb(93.333333%,73.333333%,76.470588%);fill-opacity:1;" d="M 87.792969 80.355469 C 79.875 107.355469 100.207031 136.980469 100.207031 136.980469 C 100.207031 136.980469 133.394531 122.800781 141.324219 95.792969 C 149.25 68.792969 128.90625 39.175781 128.90625 39.175781 C 128.90625 39.175781 95.71875 53.34375 87.792969 80.355469 "/>
<path style="fill:none;stroke-width:31.837;stroke-linecap:round;stroke-linejoin:round;stroke:rgb(100%,100%,100%);stroke-opacity:1;stroke-miterlimit:10;" d="M 2030.024118 2252.168982 C 1947.927255 1969.826474 2158.73839 1660.033999 2158.73839 1660.033999 C 2158.73839 1660.033999 2502.840484 1808.312834 2585.058852 2090.737039 C 2667.236718 2373.079547 2456.304078 2682.790326 2456.304078 2682.790326 C 2456.304078 2682.790326 2112.201984 2534.634035 2030.024118 2252.168982 Z M 2030.024118 2252.168982 " transform="matrix(0.0964467,0,0,-0.0956285,-107.996091,295.727085)"/>
<path style=" stroke:none;fill-rule:nonzero;fill:rgb(93.333333%,73.333333%,76.470588%);fill-opacity:1;" d="M 147.832031 112.25 C 132.8125 136.105469 96.980469 140.800781 96.980469 140.800781 C 96.980469 140.800781 85.53125 106.8125 100.5625 82.957031 C 115.59375 59.113281 151.425781 54.417969 151.425781 54.417969 C 151.425781 54.417969 162.875 88.394531 147.832031 112.25 "/>
<path style="fill:none;stroke-width:31.837;stroke-linecap:round;stroke-linejoin:round;stroke:rgb(100%,100%,100%);stroke-opacity:1;stroke-miterlimit:10;" d="M 2652.534616 1918.643724 C 2496.805737 1669.183987 2125.28402 1620.084494 2125.28402 1620.084494 C 2125.28402 1620.084494 2006.573657 1975.504368 2162.424041 2224.964105 C 2318.274425 2474.301297 2689.796142 2523.40079 2689.796142 2523.40079 C 2689.796142 2523.40079 2808.506504 2168.103461 2652.534616 1918.643724 Z M 2652.534616 1918.643724 " transform="matrix(0.0964467,0,0,-0.0956285,-107.996091,295.727085)"/>
<path style=" stroke:none;fill-rule:nonzero;fill:rgb(93.333333%,73.333333%,76.470588%);fill-opacity:1;" d="M 44.375 112.3125 C 59.46875 136.125 95.300781 140.71875 95.300781 140.71875 C 95.300781 140.71875 106.667969 106.71875 91.574219 82.894531 C 76.480469 59.082031 40.636719 54.488281 40.636719 54.488281 C 40.636719 54.488281 29.28125 88.5 44.375 112.3125 "/>
<path style="fill:none;stroke-width:31.837;stroke-linecap:round;stroke-linejoin:round;stroke:rgb(100%,100%,100%);stroke-opacity:1;stroke-miterlimit:10;" d="M 1579.848179 1917.990154 C 1736.346589 1668.979747 2107.868306 1620.942306 2107.868306 1620.942306 C 2107.868306 1620.942306 2225.728134 1976.484724 2069.229724 2225.617676 C 1912.731314 2474.628083 1541.088091 2522.665523 1541.088091 2522.665523 C 1541.088091 2522.665523 1423.349768 2167.000561 1579.848179 1917.990154 Z M 1579.848179 1917.990154 " transform="matrix(0.0964467,0,0,-0.0956285,-107.996091,295.727085)"/>
<path style=" stroke:none;fill-rule:nonzero;fill:rgb(93.333333%,73.333333%,76.470588%);fill-opacity:1;" d="M 155.238281 143.542969 C 129.675781 155.738281 96.863281 140.71875 96.863281 140.71875 C 96.863281 140.71875 105.5 105.9375 131.0625 93.738281 C 156.625 81.542969 189.4375 96.550781 189.4375 96.550781 C 189.4375 96.550781 180.800781 131.34375 155.238281 143.542969 "/>
<path style="fill:none;stroke-width:31.837;stroke-linecap:round;stroke-linejoin:round;stroke:rgb(100%,100%,100%);stroke-opacity:1;stroke-miterlimit:10;" d="M 2729.325761 1591.409083 C 2464.282905 1463.881116 2124.06897 1620.942306 2124.06897 1620.942306 C 2124.06897 1620.942306 2213.618138 1984.654357 2478.660994 2112.223173 C 2743.70385 2239.75114 3083.917785 2082.812495 3083.917785 2082.812495 C 3083.917785 2082.812495 2994.368617 1718.977899 2729.325761 1591.409083 Z M 2729.325761 1591.409083 " transform="matrix(0.0964467,0,0,-0.0956285,-107.996091,295.727085)"/>
<path style=" stroke:none;fill-rule:nonzero;fill:rgb(93.333333%,73.333333%,76.470588%);fill-opacity:1;" d="M 36.9375 143.542969 C 62.488281 155.738281 95.300781 140.71875 95.300781 140.71875 C 95.300781 140.71875 86.675781 105.9375 61.105469 93.738281 C 35.542969 81.542969 2.730469 96.550781 2.730469 96.550781 C 2.730469 96.550781 11.363281 131.34375 36.9375 143.542969 "/>
<g clip-path="url(#clip2)" clip-rule="nonzero">
<path style="fill:none;stroke-width:31.837;stroke-linecap:round;stroke-linejoin:round;stroke:rgb(100%,100%,100%);stroke-opacity:1;stroke-miterlimit:10;" d="M 1502.73302 1591.409083 C 1767.654371 1463.881116 2107.868306 1620.942306 2107.868306 1620.942306 C 2107.868306 1620.942306 2018.440643 1984.654357 1753.316784 2112.223173 C 1488.273928 2239.75114 1148.059993 2082.812495 1148.059993 2082.812495 C 1148.059993 2082.812495 1237.568659 1718.977899 1502.73302 1591.409083 Z M 1502.73302 1591.409083 " transform="matrix(0.0964467,0,0,-0.0956285,-107.996091,295.727085)"/>
</g>
<path style=" stroke:none;fill-rule:nonzero;fill:rgb(93.333333%,73.333333%,76.470588%);fill-opacity:1;" d="M 124.75 89.800781 C 124.75 117.925781 96.863281 140.71875 96.863281 140.71875 C 96.863281 140.71875 68.988281 117.925781 68.988281 89.800781 C 68.988281 61.675781 96.863281 38.863281 96.863281 38.863281 C 96.863281 38.863281 124.75 61.675781 124.75 89.800781 "/>
<path style="fill:none;stroke-width:31.837;stroke-linecap:round;stroke-linejoin:round;stroke:rgb(100%,100%,100%);stroke-opacity:1;stroke-miterlimit:10;" d="M 2413.210313 2153.398122 C 2413.210313 1859.291342 2124.06897 1620.942306 2124.06897 1620.942306 C 2124.06897 1620.942306 1835.049132 1859.291342 1835.049132 2153.398122 C 1835.049132 2447.504902 2124.06897 2686.058179 2124.06897 2686.058179 C 2124.06897 2686.058179 2413.210313 2447.504902 2413.210313 2153.398122 Z M 2413.210313 2153.398122 " transform="matrix(0.0964467,0,0,-0.0956285,-107.996091,295.727085)"/>
</g>
</svg>
