<svg xmlns="http://www.w3.org/2000/svg" xmlns:xlink="http://www.w3.org/1999/xlink" width="250" zoomAndPan="magnify" viewBox="0 0 187.5 74.999997" height="100" preserveAspectRatio="xMidYMid meet" version="1.0"><defs><g/><clipPath id="id1"><path d="M 25 14.332031 L 49 14.332031 L 49 55 L 25 55 Z M 25 14.332031 " clip-rule="nonzero"/></clipPath><clipPath id="id2"><path d="M 42 35 L 79.359375 35 L 79.359375 61 L 42 61 Z M 42 35 " clip-rule="nonzero"/></clipPath><clipPath id="id3"><path d="M 5.859375 35 L 43 35 L 43 61 L 5.859375 61 Z M 5.859375 35 " clip-rule="nonzero"/></clipPath></defs><path fill="rgb(93.328857%, 73.329163%, 76.469421%)" d="M 26.25 37.082031 C 28.933594 47.804688 41.5625 53.84375 41.5625 53.84375 C 41.5625 53.84375 49.84375 42.496094 47.160156 31.773438 C 44.480469 21.050781 31.851562 15.011719 31.851562 15.011719 C 31.851562 15.011719 23.570312 26.359375 26.25 37.082031 " fill-opacity="1" fill-rule="nonzero"/><g clip-path="url(#id1)"><path stroke-linecap="round" transform="matrix(0.0373096, 0, 0, -0.037601, -36.337827, 117.424069)" fill="none" stroke-linejoin="round" d="M 1677.524275 2136.696948 C 1749.451899 1851.527844 2087.940994 1690.918943 2087.940994 1690.918943 C 2087.940994 1690.918943 2309.901057 1992.709925 2237.973433 2277.879029 C 2166.150507 2563.048132 1827.661412 2723.657034 1827.661412 2723.657034 C 1827.661412 2723.657034 1605.70135 2421.866052 1677.524275 2136.696948 Z M 1677.524275 2136.696948 " stroke="rgb(100%, 100%, 100%)" stroke-width="31.837" stroke-opacity="1" stroke-miterlimit="10"/></g><path fill="rgb(93.328857%, 73.329163%, 76.469421%)" d="M 39.402344 32.738281 C 36.335938 43.359375 44.207031 55.003906 44.207031 55.003906 C 44.207031 55.003906 57.042969 49.429688 60.109375 38.8125 C 63.175781 28.191406 55.304688 16.546875 55.304688 16.546875 C 55.304688 16.546875 42.46875 22.121094 39.402344 32.738281 " fill-opacity="1" fill-rule="nonzero"/><path stroke-linecap="round" transform="matrix(0.0373096, 0, 0, -0.037601, -36.337827, 117.424069)" fill="none" stroke-linejoin="round" d="M 2030.042922 2252.219004 C 1947.85488 1969.750955 2158.821637 1660.064581 2158.821637 1660.064581 C 2158.821637 1660.064581 2502.859734 1808.31096 2585.047776 2090.675122 C 2667.235817 2373.14317 2456.26906 2682.829545 2456.26906 2682.829545 C 2456.26906 2682.829545 2112.230963 2534.583165 2030.042922 2252.219004 Z M 2030.042922 2252.219004 " stroke="rgb(100%, 100%, 100%)" stroke-width="31.837" stroke-opacity="1" stroke-miterlimit="10"/><path fill="rgb(93.328857%, 73.329163%, 76.469421%)" d="M 62.628906 45.28125 C 56.816406 54.660156 42.957031 56.507812 42.957031 56.507812 C 42.957031 56.507812 38.527344 43.144531 44.339844 33.765625 C 50.15625 24.386719 64.019531 22.542969 64.019531 22.542969 C 64.019531 22.542969 68.445312 35.902344 62.628906 45.28125 " fill-opacity="1" fill-rule="nonzero"/><path stroke-linecap="round" transform="matrix(0.0373096, 0, 0, -0.037601, -36.337827, 117.424069)" fill="none" stroke-linejoin="round" d="M 2652.578078 1918.638679 C 2496.787241 1669.206614 2125.318231 1620.068185 2125.318231 1620.068185 C 2125.318231 1620.068185 2006.590538 1975.464726 2162.381374 2224.896791 C 2318.276908 2474.328856 2689.850616 2523.363397 2689.850616 2523.363397 C 2689.850616 2523.363397 2808.473612 2168.070744 2652.578078 1918.638679 Z M 2652.578078 1918.638679 " stroke="rgb(100%, 100%, 100%)" stroke-width="31.837" stroke-opacity="1" stroke-miterlimit="10"/><path fill="rgb(93.328857%, 73.329163%, 76.469421%)" d="M 22.605469 45.304688 C 28.441406 54.667969 42.308594 56.476562 42.308594 56.476562 C 42.308594 56.476562 46.703125 43.105469 40.863281 33.738281 C 35.023438 24.375 21.160156 22.566406 21.160156 22.566406 C 21.160156 22.566406 16.765625 35.941406 22.605469 45.304688 " fill-opacity="1" fill-rule="nonzero"/><path stroke-linecap="round" transform="matrix(0.0373096, 0, 0, -0.037601, -36.337827, 117.424069)" fill="none" stroke-linejoin="round" d="M 1579.840908 1918.015358 C 1736.259933 1668.99884 2107.93834 1620.899279 2107.93834 1620.899279 C 2107.93834 1620.899279 2225.72375 1976.503593 2069.200027 2225.623998 C 1912.676304 2474.640516 1541.102596 2522.740077 1541.102596 2522.740077 C 1541.102596 2522.740077 1423.317185 2167.031876 1579.840908 1918.015358 Z M 1579.840908 1918.015358 " stroke="rgb(100%, 100%, 100%)" stroke-width="31.837" stroke-opacity="1" stroke-miterlimit="10"/><path fill="rgb(93.328857%, 73.329163%, 76.469421%)" d="M 65.492188 57.585938 C 55.605469 62.378906 42.910156 56.476562 42.910156 56.476562 C 42.910156 56.476562 46.25 42.796875 56.140625 38.003906 C 66.027344 33.207031 78.722656 39.109375 78.722656 39.109375 C 78.722656 39.109375 75.382812 52.789062 65.492188 57.585938 " fill-opacity="1" fill-rule="nonzero"/><g clip-path="url(#id2)"><path stroke-linecap="round" transform="matrix(0.0373096, 0, 0, -0.037601, -36.337827, 117.424069)" fill="none" stroke-linejoin="round" d="M 2729.321816 1591.395445 C 2464.330817 1463.926414 2124.061854 1620.899279 2124.061854 1620.899279 C 2124.061854 1620.899279 2213.578766 1984.710646 2478.674463 2112.179677 C 2743.665462 2239.752595 3083.934425 2082.779729 3083.934425 2082.779729 C 3083.934425 2082.779729 2994.417513 1718.968363 2729.321816 1591.395445 Z M 2729.321816 1591.395445 " stroke="rgb(100%, 100%, 100%)" stroke-width="31.837" stroke-opacity="1" stroke-miterlimit="10"/></g><path fill="rgb(93.328857%, 73.329163%, 76.469421%)" d="M 19.726562 57.585938 C 29.613281 62.378906 42.308594 56.476562 42.308594 56.476562 C 42.308594 56.476562 38.96875 42.796875 29.078125 38.003906 C 19.191406 33.207031 6.496094 39.109375 6.496094 39.109375 C 6.496094 39.109375 9.835938 52.789062 19.726562 57.585938 " fill-opacity="1" fill-rule="nonzero"/><g clip-path="url(#id3)"><path stroke-linecap="round" transform="matrix(0.0373096, 0, 0, -0.037601, -36.337827, 117.424069)" fill="none" stroke-linejoin="round" d="M 1502.678377 1591.395445 C 1767.669376 1463.926414 2107.93834 1620.899279 2107.93834 1620.899279 C 2107.93834 1620.899279 2018.421428 1984.710646 1753.325731 2112.179677 C 1488.334732 2239.752595 1148.065768 2082.779729 1148.065768 2082.779729 C 1148.065768 2082.779729 1237.58268 1718.968363 1502.678377 1591.395445 Z M 1502.678377 1591.395445 " stroke="rgb(100%, 100%, 100%)" stroke-width="31.837" stroke-opacity="1" stroke-miterlimit="10"/></g><path fill="rgb(93.328857%, 73.329163%, 76.469421%)" d="M 53.699219 36.453125 C 53.699219 47.511719 42.910156 56.476562 42.910156 56.476562 C 42.910156 56.476562 32.128906 47.511719 32.128906 36.453125 C 32.128906 25.394531 42.910156 16.425781 42.910156 16.425781 C 42.910156 16.425781 53.699219 25.394531 53.699219 36.453125 " fill-opacity="1" fill-rule="nonzero"/><path stroke-linecap="round" transform="matrix(0.0373096, 0, 0, -0.037601, -36.337827, 117.424069)" fill="none" stroke-linejoin="round" d="M 2413.238124 2153.422713 C 2413.238124 1859.31935 2124.061854 1620.899279 2124.061854 1620.899279 C 2124.061854 1620.899279 1835.09498 1859.31935 1835.09498 2153.422713 C 1835.09498 2447.526077 2124.061854 2686.050034 2124.061854 2686.050034 C 2124.061854 2686.050034 2413.238124 2447.526077 2413.238124 2153.422713 Z M 2413.238124 2153.422713 " stroke="rgb(100%, 100%, 100%)" stroke-width="31.837" stroke-opacity="1" stroke-miterlimit="10"/><g fill="rgb(100%, 100%, 99.609375%)" fill-opacity="1"><g transform="translate(90.470623, 49.072641)"><g><path d="M 1.78125 0 L 1.78125 -16.796875 L 7.203125 -16.796875 C 8.515625 -16.796875 9.582031 -16.578125 10.40625 -16.140625 C 11.238281 -15.710938 11.851562 -15.125 12.25 -14.375 C 12.65625 -13.625 12.859375 -12.789062 12.859375 -11.875 C 12.859375 -10.820312 12.570312 -9.867188 12 -9.015625 C 11.4375 -8.171875 10.554688 -7.570312 9.359375 -7.21875 L 13.03125 0 L 10.65625 0 L 7.25 -6.9375 L 3.796875 -6.9375 L 3.796875 0 Z M 3.796875 -8.515625 L 7.0625 -8.515625 C 8.351562 -8.515625 9.296875 -8.828125 9.890625 -9.453125 C 10.484375 -10.078125 10.78125 -10.878906 10.78125 -11.859375 C 10.78125 -12.847656 10.488281 -13.632812 9.90625 -14.21875 C 9.320312 -14.800781 8.363281 -15.09375 7.03125 -15.09375 L 3.796875 -15.09375 Z M 3.796875 -8.515625 "/></g></g></g><g fill="rgb(100%, 100%, 99.609375%)" fill-opacity="1"><g transform="translate(106.862655, 49.072641)"><g><path d="M 7.015625 0.28125 C 5.867188 0.28125 4.851562 0.0234375 3.96875 -0.484375 C 3.09375 -1.003906 2.40625 -1.726562 1.90625 -2.65625 C 1.40625 -3.59375 1.15625 -4.691406 1.15625 -5.953125 C 1.15625 -7.203125 1.398438 -8.289062 1.890625 -9.21875 C 2.390625 -10.15625 3.082031 -10.882812 3.96875 -11.40625 C 4.851562 -11.925781 5.882812 -12.1875 7.0625 -12.1875 C 8.207031 -12.1875 9.195312 -11.925781 10.03125 -11.40625 C 10.875 -10.882812 11.519531 -10.203125 11.96875 -9.359375 C 12.414062 -8.515625 12.640625 -7.601562 12.640625 -6.625 C 12.640625 -6.445312 12.632812 -6.269531 12.625 -6.09375 C 12.625 -5.914062 12.625 -5.71875 12.625 -5.5 L 3.140625 -5.5 C 3.191406 -4.582031 3.40625 -3.820312 3.78125 -3.21875 C 4.15625 -2.625 4.625 -2.175781 5.1875 -1.875 C 5.757812 -1.570312 6.367188 -1.421875 7.015625 -1.421875 C 7.835938 -1.421875 8.53125 -1.609375 9.09375 -1.984375 C 9.65625 -2.367188 10.0625 -2.890625 10.3125 -3.546875 L 12.3125 -3.546875 C 11.988281 -2.441406 11.375 -1.523438 10.46875 -0.796875 C 9.570312 -0.078125 8.421875 0.28125 7.015625 0.28125 Z M 7.015625 -10.484375 C 6.046875 -10.484375 5.191406 -10.191406 4.453125 -9.609375 C 3.710938 -9.023438 3.285156 -8.175781 3.171875 -7.0625 L 10.65625 -7.0625 C 10.601562 -8.125 10.234375 -8.957031 9.546875 -9.5625 C 8.859375 -10.175781 8.015625 -10.484375 7.015625 -10.484375 Z M 7.015625 -10.484375 "/></g></g></g><g fill="rgb(100%, 100%, 99.609375%)" fill-opacity="1"><g transform="translate(122.678683, 49.072641)"><g><path d="M 6.21875 0.28125 C 4.789062 0.28125 3.601562 -0.078125 2.65625 -0.796875 C 1.71875 -1.515625 1.171875 -2.488281 1.015625 -3.71875 L 3.078125 -3.71875 C 3.203125 -3.09375 3.53125 -2.550781 4.0625 -2.09375 C 4.601562 -1.644531 5.328125 -1.421875 6.234375 -1.421875 C 7.085938 -1.421875 7.710938 -1.597656 8.109375 -1.953125 C 8.515625 -2.316406 8.71875 -2.742188 8.71875 -3.234375 C 8.71875 -3.953125 8.457031 -4.429688 7.9375 -4.671875 C 7.414062 -4.921875 6.679688 -5.140625 5.734375 -5.328125 C 5.097656 -5.453125 4.457031 -5.632812 3.8125 -5.875 C 3.175781 -6.113281 2.640625 -6.453125 2.203125 -6.890625 C 1.773438 -7.335938 1.5625 -7.921875 1.5625 -8.640625 C 1.5625 -9.679688 1.945312 -10.53125 2.71875 -11.1875 C 3.5 -11.851562 4.550781 -12.1875 5.875 -12.1875 C 7.144531 -12.1875 8.179688 -11.867188 8.984375 -11.234375 C 9.796875 -10.609375 10.265625 -9.710938 10.390625 -8.546875 L 8.40625 -8.546875 C 8.320312 -9.148438 8.054688 -9.625 7.609375 -9.96875 C 7.171875 -10.3125 6.585938 -10.484375 5.859375 -10.484375 C 5.140625 -10.484375 4.582031 -10.332031 4.1875 -10.03125 C 3.789062 -9.726562 3.59375 -9.328125 3.59375 -8.828125 C 3.59375 -8.347656 3.84375 -7.972656 4.34375 -7.703125 C 4.851562 -7.429688 5.539062 -7.203125 6.40625 -7.015625 C 7.144531 -6.847656 7.84375 -6.648438 8.5 -6.421875 C 9.164062 -6.191406 9.710938 -5.847656 10.140625 -5.390625 C 10.566406 -4.929688 10.78125 -4.269531 10.78125 -3.40625 C 10.789062 -2.332031 10.382812 -1.445312 9.5625 -0.75 C 8.738281 -0.0625 7.625 0.28125 6.21875 0.28125 Z M 6.21875 0.28125 "/></g></g></g><g fill="rgb(100%, 100%, 99.609375%)" fill-opacity="1"><g transform="translate(136.838706, 49.072641)"><g><path d="M 6.359375 0 C 5.273438 0 4.421875 -0.257812 3.796875 -0.78125 C 3.171875 -1.3125 2.859375 -2.265625 2.859375 -3.640625 L 2.859375 -10.203125 L 0.796875 -10.203125 L 0.796875 -11.90625 L 2.859375 -11.90625 L 3.125 -14.765625 L 4.875 -14.765625 L 4.875 -11.90625 L 8.375 -11.90625 L 8.375 -10.203125 L 4.875 -10.203125 L 4.875 -3.640625 C 4.875 -2.890625 5.023438 -2.382812 5.328125 -2.125 C 5.628906 -1.863281 6.164062 -1.734375 6.9375 -1.734375 L 8.1875 -1.734375 L 8.1875 0 Z M 6.359375 0 "/></g></g></g><g fill="rgb(100%, 100%, 99.609375%)" fill-opacity="1"><g transform="translate(148.286719, 49.072641)"><g><path d="M 1.65625 0 L 1.65625 -11.90625 L 3.484375 -11.90625 L 3.640625 -9.625 C 4.015625 -10.40625 4.578125 -11.023438 5.328125 -11.484375 C 6.078125 -11.953125 7.003906 -12.1875 8.109375 -12.1875 L 8.109375 -10.078125 L 7.5625 -10.078125 C 6.851562 -10.078125 6.203125 -9.953125 5.609375 -9.703125 C 5.023438 -9.460938 4.554688 -9.046875 4.203125 -8.453125 C 3.847656 -7.859375 3.671875 -7.039062 3.671875 -6 L 3.671875 0 Z M 1.65625 0 "/></g></g></g><g fill="rgb(100%, 100%, 99.609375%)" fill-opacity="1"><g transform="translate(159.158737, 49.072641)"><g><path d="M 2.953125 5.28125 L 5.90625 -1.15625 L 5.203125 -1.15625 L 0.484375 -11.90625 L 2.65625 -11.90625 L 6.59375 -2.640625 L 10.78125 -11.90625 L 12.859375 -11.90625 L 5.0625 5.28125 Z M 2.953125 5.28125 "/></g></g></g></svg>