<?xml version="1.0" standalone="no"?>
<!DOCTYPE svg PUBLIC "-//W3C//DTD SVG 20010904//EN"
 "http://www.w3.org/TR/2001/REC-SVG-20010904/DTD/svg10.dtd">
<svg version="1.0" xmlns="http://www.w3.org/2000/svg"
 width="400.000000pt" height="384.000000pt" viewBox="0 0 400.000000 384.000000"
 preserveAspectRatio="xMidYMid meet">

<g transform="translate(0.000000,384.000000) scale(0.100000,-0.100000)"
fill="#000000" stroke="none">
<path d="M2961 2996 c-7 -8 -26 -14 -42 -14 -44 1 -52 -12 -44 -72 6 -47 9
-51 29 -45 51 16 77 17 102 1 22 -15 29 -15 55 -4 33 15 37 37 11 76 -10 15
-23 36 -28 47 -14 25 -66 32 -83 11z"/>
<path d="M2872 2825 c-37 -31 -67 -116 -52 -145 6 -11 20 -20 33 -19 12 0 16
3 10 6 -28 11 -12 43 40 77 50 33 56 35 93 25 50 -14 61 -25 70 -73 6 -37 6
-38 -15 -27 -25 14 -37 9 -51 -22 -10 -21 -10 -21 6 1 16 21 18 21 35 6 30
-27 39 -9 34 69 -5 65 -8 74 -37 100 -44 37 -123 39 -166 2z"/>
<path d="M2895 2664 c-9 -7 -12 -14 -8 -17 11 -7 83 16 83 26 0 11 -56 5 -75
-9z"/>
<path d="M2970 2643 c0 -6 -10 -9 -22 -8 -13 1 -15 0 -5 -2 10 -3 14 -10 11
-16 -4 -7 1 -4 11 5 11 10 16 21 12 24 -4 4 -7 3 -7 -3z"/>
<path d="M3028 2623 c7 -3 16 -2 19 1 4 3 -2 6 -13 5 -11 0 -14 -3 -6 -6z"/>
<path d="M2990 2616 c0 -2 7 -7 16 -10 8 -3 12 -2 9 4 -6 10 -25 14 -25 6z"/>
<path d="M2944 2545 c22 -17 46 -20 46 -6 0 10 -25 21 -48 21 -15 -1 -14 -3 2
-15z"/>
<path d="M2693 1555 c6 -170 27 -317 52 -364 7 -15 51 -87 97 -163 l84 -136
-24 -207 c-13 -114 -21 -213 -18 -220 7 -18 70 -35 131 -35 83 0 92 6 100 58
13 89 15 95 34 77 26 -23 34 -20 95 38 38 36 56 61 56 77 0 13 -29 77 -66 142
l-65 119 15 132 c13 112 14 170 4 392 l-12 260 -244 0 -245 0 6 -170z"/>
<path d="M3307 631 c-3 -15 -17 -42 -31 -58 -25 -29 -25 -31 -10 -79 9 -27 21
-87 28 -134 12 -81 13 -85 36 -82 13 1 35 10 48 18 22 15 24 20 17 63 -4 25
-10 80 -14 122 -3 42 -11 82 -18 90 -6 8 -14 31 -18 52 -9 44 -30 49 -38 8z"/>
<path d="M2895 362 c-3 -15 -15 -44 -26 -65 -11 -21 -18 -41 -15 -45 4 -3 34
-8 68 -10 60 -5 61 -4 55 19 -4 13 -7 42 -7 65 0 38 -3 41 -35 51 -33 11 -35
10 -40 -15z"/>
</g>
</svg>
